<svg id="Graphic_Element" data-name="Graphic Element" xmlns="http://www.w3.org/2000/svg" viewBox="0 0 1200 1200"><title>rm429-061</title><path d="M549.39,136.86c-3.11-3.45-4.85-7.21-7.16-11.17-1.94-3.31-4.4-6.26-6.57-9.41-4.93-7.14-7.84-15.64-13.71-22.16-1.47-1.63-3.47-2.92-4.19-5.13-.52-1.62-.14-3.6-.47-5.28a10.63,10.63,0,0,0-4.89-7.14c-3.39-2.08-6.83-1.64-9.16-5.37a34.93,34.93,0,0,1-4.61-12.51c-.2-1.9-1.52-3.8-3.68-3.68-5.2.28-10,2.84-14.81,4.71-6.68,2.62-13.18,5.66-19.72,8.6-13.61,6.14-27.24,12.25-40.68,18.76-27.13,13.14-53.68,27.46-80.27,41.65-54.63,29.16-112,53.46-165.15,85.42-10.61,6.38-21,12.51-32.18,17.72-9,4.18-18.74,8-26.92,13.71a2.29,2.29,0,0,0,1.09,4.15c.11,3.07,2.93,5.74,6.91,7.59,4.49,2.08,7.67,3.26,2.94,7.79-3.54,3.39-6.18,6.45-3.28,11.49,1.41,2.45,3.91,3.77,5.72,5.84,2.68,3.05,3.82,7.23,5.23,10.93,2.57,6.79,5.16,14.25,9,20.43,3,4.88,7.66,8.56,11.25,13,1,1.27,2.94,2.89,3.46,4.5.86,2.68.26,1-.45,3.32-.79,2.64-1.88,4.24-1.66,7.19.14,1.87,1.29,3.93,3.3,4.34,5.41,1.09,9.2-1.7,14.31-2.68,6.5-1.24,13,.65,19.52-1.43,6.31-2,12-5.78,18-8.66,7-3.4,14.21-6.52,21.37-9.66q21-9.18,42-18.12c13.75-5.85,26.24-14.1,39-21.79,26.28-15.84,55-27,81.5-42.4,12.95-7.52,25.39-15.88,38.07-23.83,13-8.18,26.57-15.52,39.57-23.75,14-8.87,28.64-17,42.34-26.28,6.9-4.68,13.7-9.55,20.31-14.63a72,72,0,0,1,9.58-6.72c2.48-1.34,4.25-2.29,5.69-4.87A3.81,3.81,0,0,0,549.39,136.86Zm-20.32,10.86c-6,4.63-12.11,9.2-18.35,13.55-11.7,8.19-24.29,15-36.12,23-12.22,8.29-25.15,15.34-37.76,23-12.16,7.38-23.93,15.39-36.07,22.8-24.85,15.17-51.88,26-77.53,39.69-12.6,6.71-24.52,14.6-37,21.48s-26.08,11.1-39.06,17c-15,6.78-30.39,12.69-45.15,19.95-7.78,3.82-13.55,6.49-22.37,6.21a35.61,35.61,0,0,0-9,.35,33.08,33.08,0,0,0-4.82,1.89c.91-2,1.78-3.94.94-6.58-1.7-5.32-7.34-10.46-11.19-14.3a44.85,44.85,0,0,1-10-14.91c-3-6.68-4.93-14.23-8.77-20.48-1.41-2.28-3.24-3.68-5.05-5.59-2.84-3-1-3,1.35-5.34,2.73-2.76,4.34-7.05,3.14-10.89-1-3.13-3.66-5.12-6.44-6.6a28.13,28.13,0,0,0-4.28-2,5.28,5.28,0,0,1-.85-.39l.63-.55a3.24,3.24,0,0,0,.6-4.54c13.36-7,28.22-11.6,41.27-19.2,25.42-14.81,51.49-28.39,77.73-41.68,27.57-14,55.52-27.17,83.08-41.17,13.59-6.9,26.83-14.39,40.27-21.54,12.6-6.7,25.6-12.67,38.27-19.25,14.65-7.61,29.65-14.52,44.69-21.3,7.84-3.53,15.66-7.11,23.54-10.55,4.77-2.09,11.07-5.47,16.78-6.81a9.35,9.35,0,0,0,.63,3c.78,1.89,2.25,3.19,3.21,5,1.58,2.91,2.26,5.72,4.91,8,3.52,3,8.8,2.22,10.22,7.53,1,3.65.69,6.31,3.26,9.47,3.15,3.87,6.16,7.25,8.68,11.66,2.37,4.15,4.35,8.5,7,12.45,4.29,6.26,7.87,13.26,12.48,19.3-1.94,1.32-4.79,2.47-6.13,3.41C533.46,144.25,531.29,146,529.07,147.72Z"/><path d="M1084.57,1133.92c.31-16.28,1.09-32.57,1-48.86,0-15.88-1.21-31.75-1.46-47.64-.51-32.19,2.06-64.29,1.55-96.48-.26-16.11-.65-32.21-.82-48.32s-2-32-2.85-48c-1.75-31.38-3.79-62.67-5.13-94.07-1.38-32.3-3.81-64.25-2.28-96.61s1.47-65.07,1.17-97.54c-.15-15.61-1.74-31.12-1.55-46.75.2-15.86.43-31.72.58-47.59.3-32.21.64-64.37,1.79-96.57,1.31-36.46.61-73,2.73-109.38,1-17.76,3-35.46,3.65-53.24.3-8.61.19-17.23.22-25.84q0-6.91,0-13.82c0-3.49-.94-8,.06-11.32l-5.11,5.11,1.43-.25c9.25-1.61,5.35-15.78-3.9-14.12l-1.42.26c-2.49.44-4.43,2.82-5.11,5.11-1.83,6.12-.52,13.47-.51,19.81q0,12.11,0,24.2c0,16.15-1.32,32.23-2.41,48.33-2.21,32.73-2,65.48-2.11,98.26-.1,32.43-1.32,64.79-1,97.23q.21,23.85.37,47.7c.13,15.76-.37,31.57.71,47.3,2.2,32.07,2.07,64.36,1.7,96.51-.19,16.55-1.52,33.06-1.62,49.61-.09,16.15.81,32.29,1.84,48.4,1,15.81,2.11,31.6,2.94,47.42s2.8,31.24,4,46.9c2.41,32,4.61,64,3.93,96.06-.39,18.39-.81,36.77-1.41,55.16-.58,17.86-2,35.62-1.7,53.5s1.41,35.6,2.52,53.38c1.17,18.7.93,37.44,1.23,56.17.07,4.45,6.83,4.46,6.92,0Z"/><path d="M1076,1130.28c-28.55-.69-57.13-1-85.67,0s-57.33,3-86,2.84c-28.1-.15-56.2-1.15-84.3-1.6-28.42-.46-56.86-.24-85.29-.27-14.19,0-28.37.16-42.55.23-13.92.07-27.59-1.31-41.47-2-13.69-.66-27.41.32-41.11.15-14.37-.18-28.68-2-43.06-2.42-13.5-.37-26.84-.78-40.32-1.72-14.16-1-28.38-.76-42.55-1.77-27.86-2-55.2-4-83.15-3.16-15.61.46-31.22,1-46.82,1.68-15.23.61-31.11,2.23-46.33,1.28-7.53-.47-14.78-2.12-22.37-2.26s-15.28.08-22.92.06c-15.92,0-31.75-1.85-47.67-1.83-7.5,0-7.5,11.55,0,11.65,14.34.17,28.63,1.56,43,1.62,13.13,0,26.65-1.62,39.69.17,13.58,1.86,27.32,1.49,41,1.59,14,.09,28-.09,42-.3,28-.43,55.61-.17,83.49,2.23,27.43,2.37,55,3.71,82.52,4.38,14.06.35,28.09-.34,42.15.33,13.82.65,27.48.95,41.32.67s27.24.7,41,1.55c14.45.9,29,.24,43.42.13,56.65-.43,113.23.49,169.86,1.37,31.54.49,62.91-.79,94.41-2.25,32.6-1.51,65.18-.89,97.79-1.64,6.9-.15,6.91-10.56,0-10.72Z"/><path d="M216.51,1132.2c1.26-16.45,3.11-32.66,3.13-49.19l.05-46.73q.06-48,.11-95.93.12-95.93.84-191.85c.23-32,.49-64,.42-95.93s-1.07-64-1.1-95.92c-.05-63.55.72-127.08.76-190.62,0-35.67-.36-71.33-.46-107s1.13-71.42.29-107.13c-.19-8-12.27-8-12.46,0-.74,31.64.22,63.23.27,94.89,0,32-.35,63.91-.4,95.87-.11,63.95.79,127.9.73,191.85s-1.31,127.88-.85,191.85c.46,63.54.89,127.09,1,190.62l.12,107q0,27.06.07,54.11c0,18.21,1.74,36,3.13,54.11a2.19,2.19,0,0,0,4.38,0Z"/><path d="M278.21,176.09a.32.32,0,0,0,0-.63.32.32,0,0,0,0,.63Z"/><path d="M271.57,178.81c-4.19-10.13-20.8-.76-24.46,5.59-3.84,6.69-3.64,16.44-3.08,23.9.54,7.24,5.32,11.77,12,14.14,15.48,5.52,28.88-6.43,30.7-21.63.82-6.8-1.37-13.16-7-17.31-1.36-1-2.85-1.69-4.28-2.56-2.13-1.31-3.68-3.06-5.68-4.5-3.16-2.27-6.64-2.28-10.4-1.87s-4,5.9,0,6.11c3.55.19,5.45.22,8.52,2.15,1.61,1,2.89,2.2,4.62,3.13,4.85,2.59,8.66,5.47,8.85,11.49.31,9.74-7.79,20.66-18.13,19.71-5.35-.49-11.49-3.08-12.35-8.86a65.08,65.08,0,0,1-.18-13.6c.38-5,2-9.25,6.14-12.2,2.38-1.69,8.82-5.79,11.1-2.15,1.13,1.81,4.53.63,3.63-1.54Z"/><path d="M270.34,251.39c-4.19-10.13-20.8-.76-24.46,5.59-3.84,6.69-3.64,16.44-3.08,23.9.54,7.24,5.32,11.77,12,14.14,15.48,5.52,28.88-6.43,30.7-21.63.82-6.8-1.37-13.16-7-17.31-1.36-1-2.85-1.69-4.28-2.56-2.13-1.31-3.68-3.06-5.68-4.5-3.16-2.28-6.64-2.28-10.4-1.87s-4,5.9,0,6.11c3.55.19,5.45.22,8.52,2.15,1.61,1,2.89,2.2,4.62,3.12,4.85,2.6,8.66,5.48,8.85,11.49.31,9.75-7.79,20.67-18.13,19.72-5.35-.49-11.49-3.08-12.35-8.86a65.08,65.08,0,0,1-.18-13.6c.38-5,2-9.25,6.14-12.2,2.38-1.69,8.82-5.79,11.1-2.15,1.13,1.81,4.53.63,3.63-1.54Z"/><path d="M270.34,324c-4.19-10.13-20.8-.77-24.46,5.59-3.84,6.69-3.64,16.44-3.08,23.9.54,7.24,5.32,11.76,12,14.14,15.48,5.52,28.88-6.44,30.7-21.63.82-6.8-1.37-13.16-7-17.32-1.36-1-2.85-1.68-4.28-2.56-2.13-1.3-3.68-3-5.68-4.49-3.16-2.28-6.64-2.28-10.4-1.87s-4,5.9,0,6.11c3.55.19,5.45.22,8.52,2.15,1.61,1,2.89,2.2,4.62,3.12,4.85,2.6,8.66,5.48,8.85,11.49.31,9.75-7.79,20.67-18.13,19.72-5.35-.49-11.49-3.08-12.35-8.86a65.08,65.08,0,0,1-.18-13.6c.38-5.05,2-9.25,6.14-12.2,2.38-1.69,8.82-5.79,11.1-2.16,1.13,1.82,4.53.64,3.63-1.53Z"/><path d="M275.26,400.24c-4.19-10.13-20.8-.77-24.46,5.59-3.84,6.69-3.64,16.44-3.08,23.9.54,7.24,5.32,11.76,12,14.14,15.48,5.51,28.89-6.44,30.71-21.63.81-6.8-1.38-13.17-7-17.32-1.36-1-2.85-1.68-4.28-2.56-2.13-1.3-3.68-3.05-5.68-4.49-3.16-2.28-6.64-2.28-10.4-1.87s-4,5.9,0,6.11c3.55.19,5.46.21,8.52,2.15,1.61,1,2.89,2.2,4.62,3.12,4.85,2.6,8.66,5.48,8.85,11.49.31,9.75-7.79,20.66-18.13,19.72-5.35-.49-11.49-3.08-12.35-8.86a64.41,64.41,0,0,1-.17-13.6c.37-5.05,2-9.25,6.13-12.2,2.38-1.69,8.82-5.79,11.1-2.16,1.13,1.82,4.53.64,3.63-1.53Z"/><path d="M274,472.82c-4.19-10.13-20.8-.77-24.46,5.59-3.84,6.68-3.64,16.44-3.08,23.89.54,7.25,5.32,11.77,12,14.15C274,522,287.37,510,289.2,494.82c.81-6.8-1.38-13.17-7-17.32-1.36-1-2.85-1.68-4.28-2.56-2.13-1.3-3.68-3.06-5.68-4.49-3.16-2.28-6.64-2.29-10.4-1.87s-4,5.9,0,6.11c3.55.19,5.46.21,8.52,2.15,1.61,1,2.89,2.2,4.62,3.12,4.85,2.6,8.66,5.48,8.85,11.49.31,9.75-7.79,20.66-18.13,19.72-5.35-.49-11.49-3.08-12.35-8.87a65,65,0,0,1-.18-13.59c.38-5,2-9.25,6.14-12.2,2.38-1.69,8.82-5.8,11.1-2.16,1.13,1.82,4.53.64,3.63-1.53Z"/><path d="M274,545.4c-4.19-10.13-20.8-.77-24.46,5.59-3.84,6.68-3.64,16.43-3.08,23.89.54,7.24,5.32,11.77,12,14.15,15.48,5.51,28.88-6.44,30.71-21.63.81-6.8-1.38-13.17-7-17.32-1.36-1-2.85-1.68-4.28-2.56-2.13-1.3-3.68-3.06-5.68-4.5-3.16-2.27-6.64-2.28-10.4-1.86s-4,5.9,0,6.11c3.55.19,5.46.21,8.52,2.15,1.61,1,2.89,2.19,4.62,3.12,4.85,2.6,8.66,5.48,8.85,11.49.31,9.74-7.79,20.66-18.13,19.71-5.35-.49-11.49-3.07-12.35-8.86a65,65,0,0,1-.18-13.59c.38-5,2-9.26,6.14-12.2,2.38-1.69,8.82-5.8,11.1-2.16,1.13,1.82,4.53.64,3.63-1.53Z"/><path d="M275.26,615.52c-4.19-10.13-20.8-.77-24.46,5.59-3.84,6.68-3.64,16.43-3.08,23.89.54,7.24,5.32,11.77,12,14.15,15.48,5.51,28.89-6.44,30.71-21.63.81-6.81-1.38-13.17-7-17.32-1.36-1-2.85-1.68-4.28-2.56-2.13-1.31-3.68-3.06-5.68-4.5-3.16-2.27-6.64-2.28-10.4-1.86s-4,5.9,0,6.11c3.55.19,5.46.21,8.52,2.15,1.61,1,2.89,2.19,4.62,3.12,4.85,2.59,8.66,5.48,8.85,11.49.31,9.74-7.79,20.66-18.13,19.71-5.35-.49-11.49-3.07-12.35-8.86a64.39,64.39,0,0,1-.17-13.6c.37-5,2-9.25,6.13-12.19,2.38-1.69,8.82-5.8,11.1-2.16,1.13,1.81,4.53.64,3.63-1.53Z"/><path d="M277.72,683.18c-4.19-10.14-20.8-.77-24.46,5.58-3.84,6.69-3.64,16.44-3.08,23.9.54,7.24,5.32,11.77,12,14.15,15.48,5.51,28.89-6.44,30.71-21.63.81-6.81-1.38-13.17-7-17.32-1.36-1-2.85-1.68-4.28-2.56-2.13-1.31-3.68-3.06-5.68-4.5-3.16-2.27-6.64-2.28-10.4-1.87s-4,5.9,0,6.12c3.55.18,5.46.21,8.52,2.15,1.61,1,2.89,2.19,4.62,3.12,4.85,2.59,8.66,5.48,8.85,11.49.31,9.74-7.79,20.66-18.13,19.71-5.35-.49-11.49-3.08-12.35-8.86a64.39,64.39,0,0,1-.17-13.6c.37-5,2-9.25,6.13-12.2,2.38-1.68,8.82-5.79,11.1-2.15,1.13,1.81,4.53.64,3.63-1.53Z"/><path d="M277.72,755.75c-4.19-10.13-20.8-.76-24.46,5.59-3.84,6.69-3.64,16.44-3.08,23.9.54,7.24,5.32,11.77,12,14.14,15.48,5.52,28.89-6.43,30.71-21.62.81-6.81-1.38-13.17-7-17.32-1.36-1-2.85-1.68-4.28-2.56-2.13-1.31-3.68-3.06-5.68-4.5-3.16-2.27-6.64-2.28-10.4-1.87s-4,5.9,0,6.11c3.55.19,5.46.22,8.52,2.15,1.61,1,2.89,2.2,4.62,3.13,4.85,2.59,8.66,5.47,8.85,11.49.31,9.74-7.79,20.66-18.13,19.71-5.35-.49-11.49-3.08-12.35-8.86a64.4,64.4,0,0,1-.17-13.6c.37-5,2-9.25,6.13-12.2,2.38-1.68,8.82-5.79,11.1-2.15,1.13,1.81,4.53.63,3.63-1.54Z"/><path d="M282.64,832c-4.19-10.13-20.8-.76-24.45,5.59-3.85,6.69-3.65,16.44-3.09,23.9.54,7.24,5.32,11.77,12,14.14,15.48,5.52,28.89-6.43,30.71-21.62.81-6.81-1.38-13.17-7-17.32-1.36-1-2.85-1.68-4.28-2.56-2.13-1.31-3.68-3.06-5.68-4.5-3.16-2.27-6.64-2.28-10.4-1.87s-4,5.9,0,6.11c3.55.19,5.46.22,8.52,2.15,1.61,1,2.89,2.2,4.62,3.13,4.85,2.59,8.66,5.47,8.85,11.49.31,9.74-7.79,20.66-18.13,19.71-5.35-.49-11.49-3.08-12.34-8.86a63.74,63.74,0,0,1-.18-13.6c.37-5,2-9.25,6.13-12.2,2.38-1.69,8.82-5.79,11.1-2.15,1.13,1.81,4.53.63,3.63-1.54Z"/><path d="M281.41,904.6c-4.19-10.13-20.8-.76-24.45,5.59-3.85,6.69-3.65,16.44-3.09,23.9.54,7.24,5.32,11.77,12,14.14,15.48,5.52,28.89-6.43,30.71-21.63.81-6.8-1.38-13.16-7-17.31-1.36-1-2.85-1.69-4.28-2.56-2.13-1.31-3.68-3.06-5.68-4.5-3.16-2.28-6.64-2.28-10.4-1.87s-4,5.9,0,6.11c3.55.19,5.46.22,8.52,2.15,1.61,1,2.89,2.2,4.62,3.13,4.85,2.59,8.66,5.47,8.85,11.49.31,9.74-7.79,20.66-18.13,19.71-5.35-.49-11.49-3.08-12.34-8.86a63.74,63.74,0,0,1-.18-13.6c.37-5,2-9.25,6.13-12.2,2.38-1.69,8.82-5.79,11.1-2.15,1.13,1.81,4.53.63,3.63-1.54Z"/><path d="M281.41,977.18c-4.19-10.13-20.8-.76-24.45,5.59-3.85,6.69-3.65,16.44-3.09,23.9.54,7.24,5.32,11.77,12,14.14,15.48,5.52,28.89-6.44,30.71-21.63.81-6.8-1.38-13.16-7-17.31-1.36-1-2.85-1.69-4.28-2.57-2.13-1.3-3.68-3-5.68-4.49-3.16-2.28-6.64-2.28-10.4-1.87s-4,5.9,0,6.11c3.55.19,5.46.22,8.52,2.15,1.61,1,2.89,2.2,4.62,3.12,4.85,2.6,8.66,5.48,8.85,11.49.31,9.75-7.79,20.67-18.13,19.72-5.35-.49-11.49-3.08-12.34-8.86a63.75,63.75,0,0,1-.18-13.6c.37-5,2-9.25,6.13-12.2,2.38-1.69,8.82-5.79,11.1-2.16,1.13,1.82,4.53.64,3.63-1.53Z"/><path d="M282.64,1047.3c-4.19-10.13-20.8-.77-24.45,5.59-3.85,6.69-3.65,16.44-3.09,23.89.54,7.25,5.32,11.77,12,14.15,15.48,5.51,28.89-6.44,30.71-21.63.81-6.8-1.38-13.17-7-17.32-1.36-1-2.85-1.68-4.28-2.56-2.13-1.3-3.68-3.05-5.68-4.49-3.16-2.28-6.64-2.28-10.4-1.87s-4,5.9,0,6.11c3.55.19,5.46.21,8.52,2.15,1.61,1,2.89,2.2,4.62,3.12,4.85,2.6,8.66,5.48,8.85,11.49.31,9.75-7.79,20.66-18.13,19.72-5.35-.49-11.49-3.08-12.34-8.87a63.65,63.65,0,0,1-.18-13.59c.37-5,2-9.25,6.13-12.2,2.38-1.69,8.82-5.79,11.1-2.16,1.13,1.82,4.53.64,3.63-1.53Z"/><path d="M216.3,152.51c14.52.87,29.09,1.28,43.6,2.4,13.56,1,27.07.9,40.61,1.77,13.91.9,27.48,1.7,41.45,1.58,14.57-.12,29.08-.25,43.63-1.08,28.26-1.63,56.54-5.44,84.87-5.18,14.29.14,28.37-1.52,42.63-1.77,14.47-.25,29,.12,43.44.1,14,0,27.7,1.54,41.63,1.83s27.85-.07,41.76-.07c14.26,0,28.55.33,42.8-.2,13.95-.52,27.86-1.67,41.82-1.4,13.41.25,26.43.61,39.73-1.5,13.84-2.19,27.41-1.92,41.39-1.89,28.14,0,56.31-.42,84.44.14,15.49.31,31,1.12,46.42,2,7.54.43,15,0,22.58.12s14.78,1.45,22.21,1.81c16.18.78,32.52,0,48.72-.08,7.37,0,14.75,0,22.12-.09,6-.08,12.89-1.66,18.78-.28l-4.06-4.05c.11.47.23.94.34,1.41,1.71,7.31,12.4,4.14,11.12-3.06-.09-.48-.17-1-.26-1.44a5.75,5.75,0,0,0-4-4.06c-5-1.46-10.06-1.09-15.22-.9-6.47.24-13,0-19.46,0-14.51,0-29,.09-43.53.07-13.43,0-26.7-2.16-40.08-2.06-13.76.1-27.4-1-41.14-1.21-28.2-.4-56.45.26-84.65.29-14.3,0-28.6-.09-42.91-.06-13.17,0-25.82,3.3-38.91,3.84-13.82.57-27.64-.54-41.46,0-14.37.61-28.67,1.46-43.06,1.45-28.54,0-57.08.86-85.54-1.27-13.94-1-28.1-.29-42.07-.31s-27.77.12-41.73,1.22c-14.34,1.12-28.71.07-43.06,1.13-14.59,1.08-29.15,2.51-43.73,3.77-16.18,1.4-32.39,2.61-48.64,3-15.86.36-32.05,1.23-47.87-.08-15-1.24-30-.8-45-1.87-16.69-1.19-33-.09-49.64.93a2.54,2.54,0,0,0,0,5.07Z"/></svg>